<svg width="0" height="0" class="hidden">
  <symbol fill="none" xmlns="http://www.w3.org/2000/svg" viewBox="0 0 24 24" id="google">
    <g clip-path="url(#clip0_28_750)">
      <path d="M23.094 9.91355L13.3046 9.91309C12.8724 9.91309 12.522 10.2634 12.522 10.6957V13.823C12.522 14.2552 12.8724 14.6056 13.3046 14.6056H18.8174C18.2137 16.1722 17.087 17.4842 15.6496 18.3178L18.0002 22.387C21.7709 20.2062 24.0002 16.3799 24.0002 12.0965C24.0002 11.4866 23.9553 11.0506 23.8653 10.5597C23.797 10.1867 23.4732 9.91355 23.094 9.91355Z" fill="#167EE6"></path>
      <path d="M11.9998 19.3047C9.30193 19.3047 6.94675 17.8306 5.68182 15.6494L1.61279 17.9948C3.6835 21.5836 7.56259 24.0003 11.9998 24.0003C14.1765 24.0003 16.2304 23.4143 17.9998 22.3929V22.3873L15.6491 18.3181C14.5739 18.9417 13.3297 19.3047 11.9998 19.3047Z" fill="#12B347"></path>
      <path d="M18 22.3922V22.3866L15.6494 18.3174C14.5741 18.941 13.33 19.304 12 19.304V23.9996C14.1767 23.9996 16.2308 23.4135 18 22.3922Z" fill="#0F993E"></path>
      <path d="M4.69566 12.0003C4.69566 10.6705 5.05856 9.42637 5.68205 8.3512L1.61302 6.00586C0.586031 7.76962 0 9.81797 0 12.0003C0 14.1826 0.586031 16.2309 1.61302 17.9947L5.68205 15.6494C5.05856 14.5742 4.69566 13.3301 4.69566 12.0003Z" fill="#FFD500"></path>
      <path d="M11.9998 4.69566C13.759 4.69566 15.375 5.32078 16.6372 6.36061C16.9486 6.61711 17.4012 6.59859 17.6864 6.31336L19.9022 4.09758C20.2258 3.77395 20.2028 3.24422 19.8571 2.94431C17.7423 1.10967 14.9907 0 11.9998 0C7.56259 0 3.6835 2.41673 1.61279 6.00558L5.68182 8.35092C6.94675 6.16969 9.30193 4.69566 11.9998 4.69566Z" fill="#FF4B26"></path>
      <path d="M16.6374 6.36061C16.9488 6.61711 17.4015 6.59859 17.6866 6.31336L19.9024 4.09758C20.226 3.77395 20.2029 3.24422 19.8573 2.94431C17.7425 1.10963 14.991 0 12 0V4.69566C13.7592 4.69566 15.3752 5.32078 16.6374 6.36061Z" fill="#D93F21"></path>
    </g>
    <defs>
      <clipPath id="clip0_28_750">
        <rect width="24" height="24" fill="white"></rect>
      </clipPath>
    </defs>
  </symbol>
  <symbol fill="none" xmlns="http://www.w3.org/2000/svg" viewBox="0 0 24 24" id="minus">
    <path d="M5 12H19" stroke="currentColor" stroke-width="2" stroke-linecap="round" stroke-linejoin="round"></path>
  </symbol>
  <symbol fill="none" xmlns="http://www.w3.org/2000/svg" viewBox="0 0 24 24" id="plus">
    <path d="M12 5V19" stroke="currentColor" stroke-width="2" stroke-linecap="round" stroke-linejoin="round"></path>
    <path d="M5 12H19" stroke="currentColor" stroke-width="2" stroke-linecap="round" stroke-linejoin="round"></path>
  </symbol>
  <symbol fill="none" xmlns="http://www.w3.org/2000/svg" viewBox="0 0 24 24" id="limit">
    <path d="M21 4H14" stroke="currentColor" stroke-width="2" stroke-linecap="round" stroke-linejoin="round"></path>
    <path d="M10 4H3" stroke="currentColor" stroke-width="2" stroke-linecap="round" stroke-linejoin="round"></path>
    <path d="M21 12H12" stroke="currentColor" stroke-width="2" stroke-linecap="round" stroke-linejoin="round"></path>
    <path d="M8 12H3" stroke="currentColor" stroke-width="2" stroke-linecap="round" stroke-linejoin="round"></path>
    <path d="M21 20H16" stroke="currentColor" stroke-width="2" stroke-linecap="round" stroke-linejoin="round"></path>
    <path d="M12 20H3" stroke="currentColor" stroke-width="2" stroke-linecap="round" stroke-linejoin="round"></path>
    <path d="M14 2V6" stroke="currentColor" stroke-width="2" stroke-linecap="round" stroke-linejoin="round"></path>
    <path d="M8 10V14" stroke="currentColor" stroke-width="2" stroke-linecap="round" stroke-linejoin="round"></path>
    <path d="M16 18V22" stroke="currentColor" stroke-width="2" stroke-linecap="round" stroke-linejoin="round"></path>
  </symbol>
  <symbol fill="none" xmlns="http://www.w3.org/2000/svg" viewBox="0 0 24 24" id="sort-asc">
    <path d="M11 11H15" stroke="currentColor" stroke-width="2" stroke-linecap="round" stroke-linejoin="round"></path>
    <path d="M11 15H18" stroke="currentColor" stroke-width="2" stroke-linecap="round" stroke-linejoin="round"></path>
    <path d="M11 19H21" stroke="currentColor" stroke-width="2" stroke-linecap="round" stroke-linejoin="round"></path>
    <path d="M9 7L6 4L3 7" stroke="currentColor" stroke-width="2" stroke-linecap="round" stroke-linejoin="round"></path>
    <path d="M6 6V20" stroke="currentColor" stroke-width="2" stroke-linecap="round" stroke-linejoin="round"></path>
  </symbol>
  <symbol fill="none" xmlns="http://www.w3.org/2000/svg" viewBox="0 0 24 24" id="sort-desc">
    <path d="M11 5H21" stroke="currentColor" stroke-width="2" stroke-linecap="round" stroke-linejoin="round"></path>
    <path d="M11 9H18" stroke="currentColor" stroke-width="2" stroke-linecap="round" stroke-linejoin="round"></path>
    <path d="M11 13H15" stroke="currentColor" stroke-width="2" stroke-linecap="round" stroke-linejoin="round"></path>
    <path d="M3 17L6 20L9 17" stroke="currentColor" stroke-width="2" stroke-linecap="round" stroke-linejoin="round"></path>
    <path d="M6 18V4" stroke="currentColor" stroke-width="2" stroke-linecap="round" stroke-linejoin="round"></path>
  </symbol>
  <symbol fill="none" xmlns="http://www.w3.org/2000/svg" viewBox="0 0 24 24" id="key">
    <path d="M21 2L19 4M19 4L22 7L18.5 10.5L15.5 7.5M19 4L15.5 7.5M11.39 11.61C11.9064 12.1195 12.3168 12.726 12.5978 13.3948C12.8787 14.0635 13.0246 14.7813 13.0271 15.5066C13.0295 16.232 12.8884 16.9507 12.6119 17.6213C12.3355 18.2919 11.9291 18.9012 11.4162 19.4141C10.9033 19.9271 10.294 20.3334 9.62333 20.6099C8.95271 20.8864 8.23403 21.0275 7.50866 21.025C6.7833 21.0226 6.06557 20.8767 5.39682 20.5958C4.72807 20.3148 4.1215 19.9043 3.61203 19.388C2.61016 18.3507 2.05579 16.9614 2.06832 15.5193C2.08085 14.0772 2.65928 12.6977 3.67903 11.678C4.69877 10.6583 6.07824 10.0798 7.52032 10.0673C8.96241 10.0548 10.3517 10.6091 11.389 11.611L11.39 11.61ZM11.39 11.61L15.5 7.5" stroke="currentColor" stroke-width="2" stroke-linecap="round" stroke-linejoin="round"></path>
  </symbol>
  <symbol fill="none" xmlns="http://www.w3.org/2000/svg" viewBox="0 0 24 24" id="log-in">
    <path d="M15 3H19C19.5304 3 20.0391 3.21071 20.4142 3.58579C20.7893 3.96086 21 4.46957 21 5V19C21 19.5304 20.7893 20.0391 20.4142 20.4142C20.0391 20.7893 19.5304 21 19 21H15" stroke="currentColor" stroke-width="2" stroke-linecap="round" stroke-linejoin="round"></path>
    <path d="M10 17L15 12L10 7" stroke="currentColor" stroke-width="2" stroke-linecap="round" stroke-linejoin="round"></path>
    <path d="M15 12H3" stroke="currentColor" stroke-width="2" stroke-linecap="round" stroke-linejoin="round"></path>
  </symbol>
  <symbol fill="none" xmlns="http://www.w3.org/2000/svg" viewBox="0 0 24 24" id="log-out">
    <path d="M9 21H5C4.46957 21 3.96086 20.7893 3.58579 20.4142C3.21071 20.0391 3 19.5304 3 19V5C3 4.46957 3.21071 3.96086 3.58579 3.58579C3.96086 3.21071 4.46957 3 5 3H9" stroke="currentColor" stroke-width="2" stroke-linecap="round" stroke-linejoin="round"></path>
    <path d="M16 17L21 12L16 7" stroke="currentColor" stroke-width="2" stroke-linecap="round" stroke-linejoin="round"></path>
    <path d="M21 12H9" stroke="currentColor" stroke-width="2" stroke-linecap="round" stroke-linejoin="round"></path>
  </symbol>
  <symbol fill="none" xmlns="http://www.w3.org/2000/svg" viewBox="0 0 24 24" id="map-pin">
    <path d="M20 10C20 16 12 22 12 22C12 22 4 16 4 10C4 7.87827 4.84285 5.84344 6.34315 4.34315C7.84344 2.84285 9.87827 2 12 2C14.1217 2 16.1566 2.84285 17.6569 4.34315C19.1571 5.84344 20 7.87827 20 10Z" stroke="currentColor" stroke-width="2" stroke-linecap="round" stroke-linejoin="round"></path>
    <path d="M12 13C13.6569 13 15 11.6569 15 10C15 8.34315 13.6569 7 12 7C10.3431 7 9 8.34315 9 10C9 11.6569 10.3431 13 12 13Z" stroke="currentColor" stroke-width="2" stroke-linecap="round" stroke-linejoin="round"></path>
  </symbol>
  <symbol fill="none" xmlns="http://www.w3.org/2000/svg" viewBox="0 0 24 24" id="orders">
    <path d="M2.97 12.92C2.67476 13.0974 2.43033 13.348 2.26039 13.6476C2.09045 13.9472 2.00075 14.2856 2 14.63V17.87C2.00075 18.2144 2.09045 18.5528 2.26039 18.8524C2.43033 19.152 2.67476 19.4026 2.97 19.58L5.97 21.38C6.28106 21.5669 6.63711 21.6656 7 21.6656C7.36289 21.6656 7.71894 21.5669 8.03 21.38L12 19V13.5L7 10.5L2.97 12.92Z" stroke="currentColor" stroke-width="2" stroke-linecap="round" stroke-linejoin="round"></path>
    <path d="M7.00001 16.4999L2.26001 13.6499" stroke="currentColor" stroke-width="2" stroke-linecap="round" stroke-linejoin="round"></path>
    <path d="M7 16.5L12 13.5" stroke="currentColor" stroke-width="2" stroke-linecap="round" stroke-linejoin="round"></path>
    <path d="M7 16.5V21.67" stroke="currentColor" stroke-width="2" stroke-linecap="round" stroke-linejoin="round"></path>
    <path d="M12 13.5V19L15.97 21.38C16.2811 21.5669 16.6371 21.6656 17 21.6656C17.3629 21.6656 17.7189 21.5669 18.03 21.38L21.03 19.58C21.3252 19.4026 21.5697 19.152 21.7396 18.8524C21.9096 18.5528 21.9992 18.2144 22 17.87V14.63C21.9992 14.2856 21.9096 13.9472 21.7396 13.6476C21.5697 13.348 21.3252 13.0974 21.03 12.92L17 10.5L12 13.5Z" stroke="currentColor" stroke-width="2" stroke-linecap="round" stroke-linejoin="round"></path>
    <path d="M17 16.5L12 13.5" stroke="currentColor" stroke-width="2" stroke-linecap="round" stroke-linejoin="round"></path>
    <path d="M17 16.4999L21.74 13.6499" stroke="currentColor" stroke-width="2" stroke-linecap="round" stroke-linejoin="round"></path>
    <path d="M17 16.5V21.67" stroke="currentColor" stroke-width="2" stroke-linecap="round" stroke-linejoin="round"></path>
    <path d="M7.97 4.42009C7.67476 4.59747 7.43033 4.84809 7.26039 5.14768C7.09045 5.44727 7.00075 5.78566 7 6.13009V10.5001L12 13.5001L17 10.5001V6.13009C16.9992 5.78566 16.9096 5.44727 16.7396 5.14768C16.5697 4.84809 16.3252 4.59747 16.03 4.42009L13.03 2.62009C12.7189 2.43321 12.3629 2.33447 12 2.33447C11.6371 2.33447 11.2811 2.43321 10.97 2.62009L7.97 4.42009Z" stroke="currentColor" stroke-width="2" stroke-linecap="round" stroke-linejoin="round"></path>
    <path d="M12 7.9999L7.26001 5.1499" stroke="currentColor" stroke-width="2" stroke-linecap="round" stroke-linejoin="round"></path>
    <path d="M12 7.9999L16.74 5.1499" stroke="currentColor" stroke-width="2" stroke-linecap="round" stroke-linejoin="round"></path>
    <path d="M12 13.5V8" stroke="currentColor" stroke-width="2" stroke-linecap="round" stroke-linejoin="round"></path>
  </symbol>
  <symbol fill="none" xmlns="http://www.w3.org/2000/svg" viewBox="0 0 24 24" id="opinion">
    <path d="M21 11.5C21.0034 12.8199 20.6951 14.1219 20.1 15.3C19.3944 16.7118 18.3098 17.8992 16.9674 18.7293C15.6251 19.5594 14.0782 19.9994 12.5 20C11.1801 20.0035 9.87812 19.6951 8.7 19.1L3 21L4.9 15.3C4.30493 14.1219 3.99656 12.8199 4 11.5C4.00061 9.92179 4.44061 8.37488 5.27072 7.03258C6.10083 5.69028 7.28825 4.6056 8.7 3.90003C9.87812 3.30496 11.1801 2.99659 12.5 3.00003H13C15.0843 3.11502 17.053 3.99479 18.5291 5.47089C20.0052 6.94699 20.885 8.91568 21 11V11.5Z" stroke="currentColor" stroke-width="2" stroke-linecap="round" stroke-linejoin="round"></path>
  </symbol>
  <symbol fill="none" xmlns="http://www.w3.org/2000/svg" viewBox="0 0 24 24" id="sign-up">
    <path d="M16 21V19C16 17.9391 15.5786 16.9217 14.8284 16.1716C14.0783 15.4214 13.0609 15 12 15H6C4.93913 15 3.92172 15.4214 3.17157 16.1716C2.42143 16.9217 2 17.9391 2 19V21" stroke="currentColor" stroke-width="2" stroke-linecap="round" stroke-linejoin="round"></path>
    <path d="M9 11C11.2091 11 13 9.20914 13 7C13 4.79086 11.2091 3 9 3C6.79086 3 5 4.79086 5 7C5 9.20914 6.79086 11 9 11Z" stroke="currentColor" stroke-width="2" stroke-linecap="round" stroke-linejoin="round"></path>
    <path d="M19 8V14" stroke="currentColor" stroke-width="2" stroke-linecap="round" stroke-linejoin="round"></path>
    <path d="M22 11H16" stroke="currentColor" stroke-width="2" stroke-linecap="round" stroke-linejoin="round"></path>
  </symbol>
  <symbol fill="none" xmlns="http://www.w3.org/2000/svg" viewBox="0 0 24 24" id="dog">
    <path d="M9.99998 5.17211C9.99998 3.78211 8.42298 2.67911 6.49998 3.00011C3.67698 3.47011 2.38698 9.00611 2.49998 10.0001C2.57998 10.7031 4.22498 11.7221 6.15598 11.0001C7.41698 10.5281 8.11598 9.55011 8.49998 8.50011" stroke="currentColor" stroke-width="2" stroke-linecap="round" stroke-linejoin="round"></path>
    <path d="M14.2671 5.17211C14.2671 3.78211 15.8441 2.67911 17.7671 3.00011C20.5901 3.47011 21.8801 9.00611 21.7671 10.0001C21.6871 10.7031 20.0421 11.7221 18.1111 11.0001C16.8501 10.5281 16.2561 9.55011 15.8721 8.50011" stroke="currentColor" stroke-width="2" stroke-linecap="round" stroke-linejoin="round"></path>
    <path d="M8 14V14.5" stroke="currentColor" stroke-width="2" stroke-linecap="round" stroke-linejoin="round"></path>
    <path d="M16 14V14.5" stroke="currentColor" stroke-width="2" stroke-linecap="round" stroke-linejoin="round"></path>
    <path d="M11.25 16.25H12.75L12 17L11.25 16.25Z" stroke="currentColor" stroke-width="2" stroke-linecap="round" stroke-linejoin="round"></path>
    <path d="M4.42001 11.2471C4.14014 12.3278 3.999 13.4397 4.00001 14.5561C4.00001 18.7281 7.58201 21.0001 12 21.0001C16.418 21.0001 20 18.7281 20 14.5561C20 13.4951 19.838 12.3561 19.507 11.2471M10.264 5.16509C10.8358 5.05275 11.4173 4.99748 12 5.00009C12.78 5.00009 13.5 5.10809 14.161 5.30609" stroke="currentColor" stroke-width="2" stroke-linecap="round" stroke-linejoin="round"></path>
  </symbol>
  <symbol fill="none" xmlns="http://www.w3.org/2000/svg" viewBox="0 0 24 24" id="flower">
    <path d="M12 5C12 4.40666 12.1759 3.82664 12.5056 3.33329C12.8352 2.83994 13.3038 2.45543 13.852 2.22836C14.4001 2.0013 15.0033 1.94189 15.5853 2.05765C16.1672 2.1734 16.7018 2.45912 17.1213 2.87868C17.5409 3.29824 17.8266 3.83279 17.9424 4.41473C18.0581 4.99667 17.9987 5.59987 17.7716 6.14805C17.5446 6.69623 17.1601 7.16477 16.6667 7.49441C16.1734 7.82405 15.5933 8 15 8M12 5C12 4.40666 11.8241 3.82664 11.4944 3.33329C11.1648 2.83994 10.6962 2.45543 10.1481 2.22836C9.59987 2.0013 8.99667 1.94189 8.41473 2.05765C7.83279 2.1734 7.29824 2.45912 6.87868 2.87868C6.45912 3.29824 6.1734 3.83279 6.05765 4.41473C5.94189 4.99667 6.0013 5.59987 6.22836 6.14805C6.45543 6.69623 6.83994 7.16477 7.33329 7.49441C7.82664 7.82405 8.40666 8 9 8M12 5V6M15 8C15.5933 8 16.1734 8.17595 16.6667 8.50559C17.1601 8.83524 17.5446 9.30377 17.7716 9.85195C17.9987 10.4001 18.0581 11.0033 17.9424 11.5853C17.8266 12.1672 17.5409 12.7018 17.1213 13.1213C16.7018 13.5409 16.1672 13.8266 15.5853 13.9424C15.0033 14.0581 14.4001 13.9987 13.852 13.7716C13.3038 13.5446 12.8352 13.1601 12.5056 12.6667C12.1759 12.1734 12 11.5933 12 11M15 8H14M9 8C8.40666 8 7.82664 8.17595 7.33329 8.50559C6.83994 8.83524 6.45543 9.30377 6.22836 9.85195C6.0013 10.4001 5.94189 11.0033 6.05765 11.5853C6.1734 12.1672 6.45912 12.7018 6.87868 13.1213C7.29824 13.5409 7.83279 13.8266 8.41473 13.9424C8.99667 14.0581 9.59987 13.9987 10.1481 13.7716C10.6962 13.5446 11.1648 13.1601 11.4944 12.6667C11.8241 12.1734 12 11.5933 12 11M9 8H10M12 11V10" stroke="currentColor" stroke-width="2" stroke-linecap="round" stroke-linejoin="round"></path>
    <path d="M12 10C13.1046 10 14 9.10457 14 8C14 6.89543 13.1046 6 12 6C10.8954 6 10 6.89543 10 8C10 9.10457 10.8954 10 12 10Z" stroke="currentColor" stroke-width="2" stroke-linecap="round" stroke-linejoin="round"></path>
    <path d="M12 10V22" stroke="currentColor" stroke-width="2" stroke-linecap="round" stroke-linejoin="round"></path>
    <path d="M12 22C16.2 22 19 20.333 19 17C14.8 17 12 18.667 12 22Z" stroke="currentColor" stroke-width="2" stroke-linecap="round" stroke-linejoin="round"></path>
    <path d="M12 22C7.8 22 5 20.333 5 17C9.2 17 12 18.667 12 22Z" stroke="currentColor" stroke-width="2" stroke-linecap="round" stroke-linejoin="round"></path>
  </symbol>
  <symbol fill="none" xmlns="http://www.w3.org/2000/svg" viewBox="0 0 24 24" id="github">
    <path d="M15 22V18C15.1392 16.7473 14.78 15.4901 14 14.5C17 14.5 20 12.5 20 9C20.08 7.75 19.73 6.52 19 5.5C19.28 4.35 19.28 3.15 19 2C19 2 18 2 16 3.5C13.36 3 10.64 3 8.00004 3.5C6.00004 2 5.00004 2 5.00004 2C4.70004 3.15 4.70004 4.35 5.00004 5.5C4.27191 6.51588 3.91851 7.75279 4.00004 9C4.00004 12.5 7.00004 14.5 10 14.5C9.61004 14.99 9.32004 15.55 9.15004 16.15C8.98004 16.75 8.93004 17.38 9.00004 18V22" stroke="currentColor" stroke-width="2" stroke-linecap="round" stroke-linejoin="round"></path>
    <path d="M9 18C4.49 20 4 16 2 16" stroke="currentColor" stroke-width="2" stroke-linecap="round" stroke-linejoin="round"></path>
  </symbol>
  <symbol fill="none" xmlns="http://www.w3.org/2000/svg" viewBox="0 0 24 24" id="instagram">
    <path d="M17 2H7C4.23858 2 2 4.23858 2 7V17C2 19.7614 4.23858 22 7 22H17C19.7614 22 22 19.7614 22 17V7C22 4.23858 19.7614 2 17 2Z" stroke="currentColor" stroke-width="2" stroke-linecap="round" stroke-linejoin="round"></path>
    <path d="M16 11.3701C16.1234 12.2023 15.9812 13.0523 15.5937 13.7991C15.2062 14.5459 14.5931 15.1515 13.8416 15.5297C13.0901 15.908 12.2384 16.0397 11.4077 15.906C10.5771 15.7723 9.80971 15.3801 9.21479 14.7852C8.61987 14.1903 8.22768 13.4229 8.09402 12.5923C7.96035 11.7616 8.09202 10.91 8.47028 10.1584C8.84854 9.40691 9.45414 8.7938 10.2009 8.4063C10.9477 8.0188 11.7977 7.87665 12.63 8.00006C13.4789 8.12594 14.2648 8.52152 14.8716 9.12836C15.4785 9.73521 15.8741 10.5211 16 11.3701Z" stroke="currentColor" stroke-width="2" stroke-linecap="round" stroke-linejoin="round"></path>
    <path d="M17.5 6.5H17.51" stroke="currentColor" stroke-width="2" stroke-linecap="round" stroke-linejoin="round"></path>
  </symbol>
  <symbol fill="none" xmlns="http://www.w3.org/2000/svg" viewBox="0 0 24 24" id="shopping-cart">
    <path d="M8 22C8.55228 22 9 21.5523 9 21C9 20.4477 8.55228 20 8 20C7.44772 20 7 20.4477 7 21C7 21.5523 7.44772 22 8 22Z" stroke="currentColor" stroke-width="2" stroke-linecap="round" stroke-linejoin="round"></path>
    <path d="M19 22C19.5523 22 20 21.5523 20 21C20 20.4477 19.5523 20 19 20C18.4477 20 18 20.4477 18 21C18 21.5523 18.4477 22 19 22Z" stroke="currentColor" stroke-width="2" stroke-linecap="round" stroke-linejoin="round"></path>
    <path d="M2.05005 2.05005H4.05005L6.71005 14.47C6.80763 14.9249 7.06072 15.3315 7.42576 15.6199C7.7908 15.9083 8.24495 16.0604 8.71005 16.05H18.49C18.9452 16.0493 19.3865 15.8933 19.7411 15.6079C20.0956 15.3224 20.3422 14.9246 20.4401 14.48L22.09 7.05005H5.12005" stroke="currentColor" stroke-width="2" stroke-linecap="round" stroke-linejoin="round"></path>
  </symbol>
  <symbol fill="none" xmlns="http://www.w3.org/2000/svg" viewBox="0 0 24 24" id="tiktok">
    <g transform="scale(1.08, 1)">
      <path d="M21 7.917v4.034a9.948 9.948 0 0 1 -5 -1.951v4.5a6.5 6.5 0 1 1 -8 -6.326v4.326a2.5 2.5 0 1 0 4 2v-11.5h4.083a6.005 6.005 0 0 0 4.917 4.917z" stroke="currentColor" stroke-width="2" stroke-linecap="round" stroke-linejoin="round"></path>
    </g>
  </symbol>
  <symbol fill="none" xmlns="http://www.w3.org/2000/svg" viewBox="0 0 24 24" id="user">
    <path d="M19 21V19C19 17.9391 18.5786 16.9217 17.8284 16.1716C17.0783 15.4214 16.0609 15 15 15H9C7.93913 15 6.92172 15.4214 6.17157 16.1716C5.42143 16.9217 5 17.9391 5 19V21" stroke="currentColor" stroke-width="2" stroke-linecap="round" stroke-linejoin="round"></path>
    <path d="M12 11C14.2091 11 16 9.20914 16 7C16 4.79086 14.2091 3 12 3C9.79086 3 8 4.79086 8 7C8 9.20914 9.79086 11 12 11Z" stroke="currentColor" stroke-width="2" stroke-linecap="round" stroke-linejoin="round"></path>
  </symbol>
  <symbol fill="none" xmlns="http://www.w3.org/2000/svg" viewBox="0 0 24 24" id="sprout">
    <path d="M7 20H17" stroke="currentColor" stroke-width="2" stroke-linecap="round" stroke-linejoin="round"></path>
    <path d="M10 20C15.5 17.5 10.8 13.6 13 10" stroke="currentColor" stroke-width="2" stroke-linecap="round" stroke-linejoin="round"></path>
    <path d="M9.5 9.40009C10.6 10.2001 11.3 11.6001 11.8 13.1001C9.8 13.5001 8.3 13.5001 7 12.8001C5.8 12.2001 4.7 10.9001 4 8.60009C6.8 8.10009 8.4 8.60009 9.5 9.40009Z" stroke="currentColor" stroke-width="2" stroke-linecap="round" stroke-linejoin="round"></path>
    <path d="M14.1 6C13.3376 7.19156 12.9541 8.58615 13 10C14.9 9.9 16.3 9.4 17.3 8.6C18.3 7.6 18.9 6.3 19 4C16.3 4.1 15 5 14.1 6Z" stroke="currentColor" stroke-width="2" stroke-linecap="round" stroke-linejoin="round"></path>
  </symbol>
</svg>